<mxfile host="65bd71144e">
    <diagram id="y7q3BcKqbESSqugUZl9e" name="Page-1">
        <mxGraphModel dx="2520" dy="767" grid="1" gridSize="10" guides="1" tooltips="1" connect="1" arrows="1" fold="1" page="1" pageScale="1" pageWidth="850" pageHeight="1100" background="none" math="0" shadow="0">
            <root>
                <mxCell id="0"/>
                <mxCell id="1" parent="0"/>
                <mxCell id="2" value="Diagram Heading" style="shape=umlFrame;whiteSpace=wrap;html=1;pointerEvents=0;recursiveResize=0;container=1;collapsible=0;width=160;" vertex="1" parent="1">
                    <mxGeometry x="340" y="150" width="340" height="180" as="geometry"/>
                </mxCell>
                <mxCell id="3" value="" style="fontStyle=1;align=center;verticalAlign=top;childLayout=stackLayout;horizontal=1;horizontalStack=0;resizeParent=1;resizeParentMax=0;resizeLast=0;marginBottom=0;" vertex="1" parent="1">
                    <mxGeometry x="80" y="130" width="140" height="161" as="geometry"/>
                </mxCell>
                <mxCell id="4" value="Component" style="html=1;align=left;spacingLeft=4;verticalAlign=top;strokeColor=none;fillColor=none;whiteSpace=wrap;" vertex="1" parent="3">
                    <mxGeometry width="140" height="40" as="geometry"/>
                </mxCell>
                <mxCell id="5" value="" style="shape=module;jettyWidth=10;jettyHeight=4;" vertex="1" parent="4">
                    <mxGeometry x="1" width="16" height="20" relative="1" as="geometry">
                        <mxPoint x="-25" y="9" as="offset"/>
                    </mxGeometry>
                </mxCell>
                <mxCell id="6" value="" style="line;strokeWidth=1;fillColor=none;align=left;verticalAlign=middle;spacingTop=-1;spacingLeft=3;spacingRight=3;rotatable=0;labelPosition=right;points=[];portConstraint=eastwest;" vertex="1" parent="3">
                    <mxGeometry y="40" width="140" height="8" as="geometry"/>
                </mxCell>
                <mxCell id="7" value="provided interfaces" style="html=1;align=center;spacingLeft=4;verticalAlign=top;strokeColor=none;fillColor=none;whiteSpace=wrap;" vertex="1" parent="3">
                    <mxGeometry y="48" width="140" height="25" as="geometry"/>
                </mxCell>
                <mxCell id="8" value="Interface1" style="html=1;align=left;spacingLeft=4;verticalAlign=top;strokeColor=none;fillColor=none;whiteSpace=wrap;" vertex="1" parent="3">
                    <mxGeometry y="73" width="140" height="25" as="geometry"/>
                </mxCell>
                <mxCell id="9" value="" style="line;strokeWidth=1;fillColor=none;align=left;verticalAlign=middle;spacingTop=-1;spacingLeft=3;spacingRight=3;rotatable=0;labelPosition=right;points=[];portConstraint=eastwest;" vertex="1" parent="3">
                    <mxGeometry y="98" width="140" height="8" as="geometry"/>
                </mxCell>
                <mxCell id="10" value="required interfaces" style="html=1;align=center;spacingLeft=4;verticalAlign=top;strokeColor=none;fillColor=none;whiteSpace=wrap;" vertex="1" parent="3">
                    <mxGeometry y="106" width="140" height="25" as="geometry"/>
                </mxCell>
                <mxCell id="11" value="Interface2" style="html=1;align=left;spacingLeft=4;verticalAlign=top;strokeColor=none;fillColor=none;whiteSpace=wrap;" vertex="1" parent="3">
                    <mxGeometry y="131" width="140" height="30" as="geometry"/>
                </mxCell>
                <mxCell id="20" style="edgeStyle=none;html=1;" edge="1" parent="1" source="12" target="2">
                    <mxGeometry relative="1" as="geometry"/>
                </mxCell>
                <mxCell id="33" value="" style="edgeStyle=none;html=1;" edge="1" parent="1" source="12" target="23">
                    <mxGeometry relative="1" as="geometry"/>
                </mxCell>
                <mxCell id="12" value="&amp;lt;&amp;lt;keyword&amp;gt;&amp;gt;&lt;br&gt;&lt;b&gt;JFldjsflf&lt;/b&gt;&lt;br&gt;{abstract}" style="swimlane;fontStyle=0;align=center;verticalAlign=top;childLayout=stackLayout;horizontal=1;startSize=55;horizontalStack=0;resizeParent=1;resizeParentMax=0;resizeLast=0;collapsible=0;marginBottom=0;html=1;whiteSpace=wrap;" vertex="1" parent="1">
                    <mxGeometry x="130" y="320" width="140" height="223" as="geometry"/>
                </mxCell>
                <mxCell id="13" value="attributes" style="text;html=1;strokeColor=none;fillColor=none;align=center;verticalAlign=middle;spacingLeft=4;spacingRight=4;overflow=hidden;rotatable=0;points=[[0,0.5],[1,0.5]];portConstraint=eastwest;whiteSpace=wrap;" vertex="1" parent="12">
                    <mxGeometry y="55" width="140" height="20" as="geometry"/>
                </mxCell>
                <mxCell id="14" value="attribute1" style="text;html=1;strokeColor=none;fillColor=none;align=left;verticalAlign=middle;spacingLeft=4;spacingRight=4;overflow=hidden;rotatable=0;points=[[0,0.5],[1,0.5]];portConstraint=eastwest;whiteSpace=wrap;" vertex="1" parent="12">
                    <mxGeometry y="75" width="140" height="20" as="geometry"/>
                </mxCell>
                <mxCell id="21" value="inherited attribute2" style="text;html=1;strokeColor=none;fillColor=none;align=left;verticalAlign=middle;spacingLeft=4;spacingRight=4;overflow=hidden;rotatable=0;points=[[0,0.5],[1,0.5]];portConstraint=eastwest;fontColor=#808080;whiteSpace=wrap;" vertex="1" parent="12">
                    <mxGeometry y="95" width="140" height="20" as="geometry"/>
                </mxCell>
                <mxCell id="22" value="inherited attribute2" style="text;html=1;strokeColor=none;fillColor=none;align=left;verticalAlign=middle;spacingLeft=4;spacingRight=4;overflow=hidden;rotatable=0;points=[[0,0.5],[1,0.5]];portConstraint=eastwest;fontColor=#808080;whiteSpace=wrap;" vertex="1" parent="12">
                    <mxGeometry y="115" width="140" height="20" as="geometry"/>
                </mxCell>
                <mxCell id="15" value="inherited attribute2" style="text;html=1;strokeColor=none;fillColor=none;align=left;verticalAlign=middle;spacingLeft=4;spacingRight=4;overflow=hidden;rotatable=0;points=[[0,0.5],[1,0.5]];portConstraint=eastwest;fontColor=#808080;whiteSpace=wrap;" vertex="1" parent="12">
                    <mxGeometry y="135" width="140" height="20" as="geometry"/>
                </mxCell>
                <mxCell id="16" value="..." style="text;html=1;strokeColor=none;fillColor=none;align=left;verticalAlign=middle;spacingLeft=4;spacingRight=4;overflow=hidden;rotatable=0;points=[[0,0.5],[1,0.5]];portConstraint=eastwest;whiteSpace=wrap;" vertex="1" parent="12">
                    <mxGeometry y="155" width="140" height="20" as="geometry"/>
                </mxCell>
                <mxCell id="17" value="" style="line;strokeWidth=1;fillColor=none;align=left;verticalAlign=middle;spacingTop=-1;spacingLeft=3;spacingRight=3;rotatable=0;labelPosition=right;points=[];portConstraint=eastwest;" vertex="1" parent="12">
                    <mxGeometry y="175" width="140" height="8" as="geometry"/>
                </mxCell>
                <mxCell id="18" value="operations" style="text;html=1;strokeColor=none;fillColor=none;align=center;verticalAlign=middle;spacingLeft=4;spacingRight=4;overflow=hidden;rotatable=0;points=[[0,0.5],[1,0.5]];portConstraint=eastwest;whiteSpace=wrap;" vertex="1" parent="12">
                    <mxGeometry y="183" width="140" height="20" as="geometry"/>
                </mxCell>
                <mxCell id="19" value="operation1" style="text;html=1;strokeColor=none;fillColor=none;align=left;verticalAlign=middle;spacingLeft=4;spacingRight=4;overflow=hidden;rotatable=0;points=[[0,0.5],[1,0.5]];portConstraint=eastwest;whiteSpace=wrap;" vertex="1" parent="12">
                    <mxGeometry y="203" width="140" height="20" as="geometry"/>
                </mxCell>
                <mxCell id="23" value="&amp;lt;&amp;lt;keyword&amp;gt;&amp;gt;&lt;br&gt;&lt;b&gt;Classifier1&lt;/b&gt;&lt;br&gt;{abstract}" style="swimlane;fontStyle=0;align=center;verticalAlign=top;childLayout=stackLayout;horizontal=1;startSize=55;horizontalStack=0;resizeParent=1;resizeParentMax=0;resizeLast=0;collapsible=0;marginBottom=0;html=1;whiteSpace=wrap;" vertex="1" parent="1">
                    <mxGeometry x="-90" y="320" width="140" height="223" as="geometry"/>
                </mxCell>
                <mxCell id="24" value="attributes" style="text;html=1;strokeColor=none;fillColor=none;align=center;verticalAlign=middle;spacingLeft=4;spacingRight=4;overflow=hidden;rotatable=0;points=[[0,0.5],[1,0.5]];portConstraint=eastwest;whiteSpace=wrap;" vertex="1" parent="23">
                    <mxGeometry y="55" width="140" height="20" as="geometry"/>
                </mxCell>
                <mxCell id="25" value="attribute1" style="text;html=1;strokeColor=none;fillColor=none;align=left;verticalAlign=middle;spacingLeft=4;spacingRight=4;overflow=hidden;rotatable=0;points=[[0,0.5],[1,0.5]];portConstraint=eastwest;whiteSpace=wrap;" vertex="1" parent="23">
                    <mxGeometry y="75" width="140" height="20" as="geometry"/>
                </mxCell>
                <mxCell id="26" value="inherited attribute2" style="text;html=1;strokeColor=none;fillColor=none;align=left;verticalAlign=middle;spacingLeft=4;spacingRight=4;overflow=hidden;rotatable=0;points=[[0,0.5],[1,0.5]];portConstraint=eastwest;fontColor=#808080;whiteSpace=wrap;" vertex="1" parent="23">
                    <mxGeometry y="95" width="140" height="20" as="geometry"/>
                </mxCell>
                <mxCell id="27" value="inherited attribute2" style="text;html=1;strokeColor=none;fillColor=none;align=left;verticalAlign=middle;spacingLeft=4;spacingRight=4;overflow=hidden;rotatable=0;points=[[0,0.5],[1,0.5]];portConstraint=eastwest;fontColor=#808080;whiteSpace=wrap;" vertex="1" parent="23">
                    <mxGeometry y="115" width="140" height="20" as="geometry"/>
                </mxCell>
                <mxCell id="28" value="inherited attribute2" style="text;html=1;strokeColor=none;fillColor=none;align=left;verticalAlign=middle;spacingLeft=4;spacingRight=4;overflow=hidden;rotatable=0;points=[[0,0.5],[1,0.5]];portConstraint=eastwest;fontColor=#808080;whiteSpace=wrap;" vertex="1" parent="23">
                    <mxGeometry y="135" width="140" height="20" as="geometry"/>
                </mxCell>
                <mxCell id="29" value="..." style="text;html=1;strokeColor=none;fillColor=none;align=left;verticalAlign=middle;spacingLeft=4;spacingRight=4;overflow=hidden;rotatable=0;points=[[0,0.5],[1,0.5]];portConstraint=eastwest;whiteSpace=wrap;" vertex="1" parent="23">
                    <mxGeometry y="155" width="140" height="20" as="geometry"/>
                </mxCell>
                <mxCell id="30" value="" style="line;strokeWidth=1;fillColor=none;align=left;verticalAlign=middle;spacingTop=-1;spacingLeft=3;spacingRight=3;rotatable=0;labelPosition=right;points=[];portConstraint=eastwest;" vertex="1" parent="23">
                    <mxGeometry y="175" width="140" height="8" as="geometry"/>
                </mxCell>
                <mxCell id="31" value="operations" style="text;html=1;strokeColor=none;fillColor=none;align=center;verticalAlign=middle;spacingLeft=4;spacingRight=4;overflow=hidden;rotatable=0;points=[[0,0.5],[1,0.5]];portConstraint=eastwest;whiteSpace=wrap;" vertex="1" parent="23">
                    <mxGeometry y="183" width="140" height="20" as="geometry"/>
                </mxCell>
                <mxCell id="32" value="operation1" style="text;html=1;strokeColor=none;fillColor=none;align=left;verticalAlign=middle;spacingLeft=4;spacingRight=4;overflow=hidden;rotatable=0;points=[[0,0.5],[1,0.5]];portConstraint=eastwest;whiteSpace=wrap;" vertex="1" parent="23">
                    <mxGeometry y="203" width="140" height="20" as="geometry"/>
                </mxCell>
                <mxCell id="34" value="" style="shape=ellipse;container=1;horizontal=1;horizontalStack=0;resizeParent=1;resizeParentMax=0;resizeLast=0;html=1;dashed=1;collapsible=0;" vertex="1" parent="1">
                    <mxGeometry x="360" y="440" width="270" height="230" as="geometry"/>
                </mxCell>
                <mxCell id="35" value="Collaboration1" style="html=1;strokeColor=none;fillColor=none;align=center;verticalAlign=middle;spacingLeft=4;spacingRight=4;rotatable=0;points=[[0,0.5],[1,0.5]];resizeWidth=1;whiteSpace=wrap;" vertex="1" parent="34">
                    <mxGeometry width="270" height="30" as="geometry"/>
                </mxCell>
                <mxCell id="36" value="" style="line;strokeWidth=1;fillColor=none;rotatable=0;labelPosition=right;points=[];portConstraint=eastwest;dashed=1;resizeWidth=1;" vertex="1" parent="34">
                    <mxGeometry x="39" y="30" width="192" height="8" as="geometry"/>
                </mxCell>
                <mxCell id="37" value="Classifier1" style="html=1;align=center;verticalAlign=middle;rotatable=0;whiteSpace=wrap;" vertex="1" parent="34">
                    <mxGeometry width="100" height="30" relative="1" as="geometry">
                        <mxPoint x="85" y="50" as="offset"/>
                    </mxGeometry>
                </mxCell>
                <mxCell id="38" value="Collaboration use 1" style="shape=ellipse;html=1;align=center;verticalAlign=middle;rotatable=0;dashed=1;whiteSpace=wrap;" vertex="1" parent="34">
                    <mxGeometry width="140" height="30" relative="1" as="geometry">
                        <mxPoint x="65" y="110" as="offset"/>
                    </mxGeometry>
                </mxCell>
                <mxCell id="39" value="property1" style="edgeStyle=none;endArrow=none;verticalAlign=middle;labelBackgroundColor=none;endSize=12;html=1;align=left;endFill=0;spacingLeft=4;" edge="1" parent="34" source="37" target="38">
                    <mxGeometry relative="1" as="geometry"/>
                </mxCell>
                <mxCell id="40" value="Classifier2" style="html=1;align=center;verticalAlign=middle;rotatable=0;whiteSpace=wrap;" vertex="1" parent="34">
                    <mxGeometry width="100" height="30" relative="1" as="geometry">
                        <mxPoint x="85" y="170" as="offset"/>
                    </mxGeometry>
                </mxCell>
                <mxCell id="41" value="property1" style="edgeStyle=none;endArrow=none;verticalAlign=middle;labelBackgroundColor=none;endSize=12;html=1;align=left;endFill=0;spacingLeft=4;" edge="1" parent="34" source="38" target="40">
                    <mxGeometry relative="1" as="geometry"/>
                </mxCell>
                <mxCell id="42" style="edgeStyle=none;html=1;" edge="1" parent="1" source="35" target="2">
                    <mxGeometry relative="1" as="geometry"/>
                </mxCell>
                <mxCell id="43" value="Instance1" style="swimlane;fontStyle=4;align=center;verticalAlign=top;childLayout=stackLayout;horizontal=1;startSize=30;horizontalStack=0;resizeParent=1;resizeParentMax=0;resizeLast=0;collapsible=0;marginBottom=0;html=1;whiteSpace=wrap;" vertex="1" parent="1">
                    <mxGeometry x="-230" y="170" width="140" height="138" as="geometry"/>
                </mxCell>
                <mxCell id="44" value="slot1" style="html=1;strokeColor=none;fillColor=none;align=left;verticalAlign=middle;spacingLeft=4;spacingRight=4;rotatable=0;points=[[0,0.5],[1,0.5]];resizeWidth=1;whiteSpace=wrap;" vertex="1" parent="43">
                    <mxGeometry y="30" width="140" height="30" as="geometry"/>
                </mxCell>
                <mxCell id="45" value="" style="line;strokeWidth=1;fillColor=none;align=left;verticalAlign=middle;spacingTop=-1;spacingLeft=3;spacingRight=3;rotatable=0;labelPosition=right;points=[];portConstraint=eastwest;" vertex="1" parent="43">
                    <mxGeometry y="60" width="140" height="8" as="geometry"/>
                </mxCell>
                <mxCell id="46" value="internal structure" style="html=1;strokeColor=none;fillColor=none;align=center;verticalAlign=middle;spacingLeft=4;spacingRight=4;rotatable=0;points=[[0,0.5],[1,0.5]];resizeWidth=1;whiteSpace=wrap;" vertex="1" parent="43">
                    <mxGeometry y="68" width="140" height="20" as="geometry"/>
                </mxCell>
                <mxCell id="47" value="" style="swimlane;fontStyle=1;align=center;verticalAlign=top;horizontal=1;startSize=0;collapsible=0;marginBottom=0;html=1;strokeColor=none;fillColor=none;whiteSpace=wrap;" vertex="1" parent="43">
                    <mxGeometry y="88" width="140" height="50" as="geometry"/>
                </mxCell>
                <mxCell id="48" value="instance2" style="html=1;align=center;verticalAlign=middle;rotatable=0;whiteSpace=wrap;" vertex="1" parent="47">
                    <mxGeometry width="80" height="30" relative="1" as="geometry">
                        <mxPoint x="30" y="10" as="offset"/>
                    </mxGeometry>
                </mxCell>
            </root>
        </mxGraphModel>
    </diagram>
    <diagram id="W_D_JPEcKwNm6IKqImoo" name="Page-2">
        <mxGraphModel dx="1002" dy="460" grid="1" gridSize="10" guides="1" tooltips="1" connect="1" arrows="1" fold="1" page="1" pageScale="1" pageWidth="850" pageHeight="1100" math="0" shadow="0">
            <root>
                <mxCell id="0"/>
                <mxCell id="1" parent="0"/>
            </root>
        </mxGraphModel>
    </diagram>
</mxfile>